%TF.GenerationSoftware,KiCad,Pcbnew,9.0.2*%
%TF.CreationDate,2025-07-09T13:19:50-04:00*%
%TF.ProjectId,JST Adapter Board,4a535420-4164-4617-9074-657220426f61,rev?*%
%TF.SameCoordinates,Original*%
%TF.FileFunction,Legend,Bot*%
%TF.FilePolarity,Positive*%
%FSLAX46Y46*%
G04 Gerber Fmt 4.6, Leading zero omitted, Abs format (unit mm)*
G04 Created by KiCad (PCBNEW 9.0.2) date 2025-07-09 13:19:50*
%MOMM*%
%LPD*%
G01*
G04 APERTURE LIST*
%ADD10C,0.000000*%
G04 APERTURE END LIST*
D10*
%TO.C,G\u002A\u002A\u002A*%
G36*
X88688808Y-57835232D02*
G01*
X88708179Y-57869213D01*
X88729778Y-57906472D01*
X88746208Y-57933819D01*
X88758024Y-57952100D01*
X88765780Y-57962162D01*
X88770033Y-57964850D01*
X88771338Y-57961010D01*
X88771205Y-57955707D01*
X88770420Y-57937624D01*
X88769008Y-57909363D01*
X88767060Y-57872617D01*
X88764666Y-57829080D01*
X88761917Y-57780442D01*
X88758904Y-57728398D01*
X88757253Y-57700213D01*
X88753290Y-57632318D01*
X88750058Y-57575832D01*
X88747544Y-57529664D01*
X88745736Y-57492723D01*
X88744623Y-57463920D01*
X88744193Y-57442165D01*
X88744432Y-57426366D01*
X88745330Y-57415433D01*
X88746875Y-57408277D01*
X88749054Y-57403807D01*
X88751855Y-57400933D01*
X88755266Y-57398565D01*
X88757461Y-57397198D01*
X88772117Y-57393845D01*
X88782235Y-57401692D01*
X88785853Y-57419401D01*
X88785841Y-57421946D01*
X88786131Y-57439949D01*
X88786911Y-57468624D01*
X88788113Y-57506169D01*
X88789668Y-57550781D01*
X88791506Y-57600658D01*
X88793559Y-57653997D01*
X88795757Y-57708996D01*
X88798032Y-57763852D01*
X88800315Y-57816763D01*
X88802535Y-57865926D01*
X88804625Y-57909539D01*
X88810772Y-58033086D01*
X88812019Y-58058152D01*
X88852478Y-58132459D01*
X88861857Y-58149824D01*
X88886987Y-58198338D01*
X88905422Y-58237704D01*
X88917624Y-58269072D01*
X88924060Y-58293589D01*
X88925193Y-58312406D01*
X88923098Y-58326044D01*
X88916152Y-58336670D01*
X88900611Y-58344085D01*
X88893948Y-58346092D01*
X88864001Y-58349677D01*
X88828777Y-58347794D01*
X88793075Y-58340941D01*
X88761690Y-58329620D01*
X88755888Y-58326699D01*
X88738002Y-58316307D01*
X88717549Y-58302212D01*
X88692823Y-58283116D01*
X88662122Y-58257727D01*
X88623741Y-58224747D01*
X88592404Y-58197497D01*
X88598915Y-58230426D01*
X88599065Y-58231187D01*
X88602212Y-58253084D01*
X88600735Y-58268831D01*
X88594104Y-58284376D01*
X88584935Y-58297538D01*
X88563931Y-58313830D01*
X88539759Y-58319841D01*
X88535800Y-58319491D01*
X88516811Y-58311944D01*
X88494232Y-58296148D01*
X88470734Y-58274211D01*
X88448991Y-58248241D01*
X88446933Y-58245435D01*
X88433563Y-58227475D01*
X88423787Y-58214798D01*
X88419598Y-58209997D01*
X88419592Y-58209997D01*
X88418964Y-58215996D01*
X88418651Y-58231547D01*
X88418719Y-58253309D01*
X88418746Y-58255723D01*
X88418515Y-58278243D01*
X88416536Y-58291612D01*
X88411761Y-58299294D01*
X88403139Y-58304756D01*
X88398904Y-58306698D01*
X88387846Y-58308942D01*
X88376634Y-58305470D01*
X88363518Y-58295019D01*
X88346748Y-58276329D01*
X88324574Y-58248139D01*
X88320624Y-58243027D01*
X88297963Y-58215348D01*
X88273500Y-58187562D01*
X88251883Y-58164987D01*
X88215696Y-58129670D01*
X88215696Y-58188346D01*
X88215665Y-58198316D01*
X88214933Y-58224430D01*
X88212762Y-58241995D01*
X88208537Y-58254363D01*
X88201642Y-58264890D01*
X88199577Y-58267486D01*
X88191520Y-58275909D01*
X88182367Y-58279998D01*
X88168201Y-58280739D01*
X88145104Y-58279119D01*
X88124255Y-58276533D01*
X88098281Y-58271404D01*
X88078799Y-58265438D01*
X88073002Y-58263021D01*
X88060410Y-58258787D01*
X88054359Y-58260440D01*
X88050848Y-58268406D01*
X88046526Y-58277767D01*
X88030671Y-58292063D01*
X88007318Y-58298637D01*
X87978286Y-58297666D01*
X87945391Y-58289327D01*
X87910452Y-58273799D01*
X87875285Y-58251258D01*
X87864114Y-58243129D01*
X87853261Y-58237031D01*
X87848469Y-58238819D01*
X87847393Y-58248237D01*
X87847773Y-58255947D01*
X87851393Y-58268897D01*
X87860446Y-58281287D01*
X87876875Y-58295418D01*
X87902624Y-58313588D01*
X87962050Y-58356882D01*
X88020208Y-58407556D01*
X88067117Y-58458711D01*
X88102380Y-58509845D01*
X88125602Y-58560456D01*
X88136387Y-58610044D01*
X88136662Y-58613329D01*
X88136247Y-58627948D01*
X88135523Y-58653423D01*
X88125554Y-58685282D01*
X88106999Y-58708089D01*
X88095229Y-58715705D01*
X88080194Y-58719296D01*
X88058507Y-58718128D01*
X88033666Y-58713659D01*
X87986604Y-58695620D01*
X87943823Y-58665833D01*
X87905594Y-58624687D01*
X87872191Y-58572571D01*
X87843885Y-58509874D01*
X87820948Y-58436983D01*
X87803653Y-58354288D01*
X87799055Y-58326324D01*
X87853854Y-58326324D01*
X87853863Y-58344083D01*
X87854563Y-58355029D01*
X87857598Y-58378556D01*
X87862387Y-58407893D01*
X87868220Y-58439070D01*
X87874386Y-58468119D01*
X87880175Y-58491070D01*
X87893095Y-58526295D01*
X87911892Y-58563262D01*
X87934259Y-58597746D01*
X87958386Y-58627271D01*
X87982464Y-58649360D01*
X88004684Y-58661534D01*
X88011005Y-58663463D01*
X88037829Y-58670678D01*
X88055540Y-58672991D01*
X88066506Y-58670460D01*
X88073095Y-58663138D01*
X88076660Y-58654033D01*
X88079700Y-58627948D01*
X88076578Y-58595984D01*
X88067496Y-58561769D01*
X88051109Y-58525682D01*
X88021917Y-58480677D01*
X87983751Y-58435111D01*
X87938346Y-58391024D01*
X87887440Y-58350453D01*
X87853854Y-58326324D01*
X87799055Y-58326324D01*
X87792471Y-58286284D01*
X87721394Y-58237534D01*
X87649588Y-58187336D01*
X87585642Y-58140435D01*
X87530021Y-58096997D01*
X87481126Y-58055769D01*
X87437357Y-58015504D01*
X87424177Y-58002700D01*
X87398668Y-57976886D01*
X87381822Y-57957864D01*
X87372748Y-57944573D01*
X87370557Y-57935954D01*
X87371486Y-57931143D01*
X87376997Y-57921594D01*
X87386990Y-57921024D01*
X87402222Y-57929820D01*
X87423450Y-57948365D01*
X87451430Y-57977043D01*
X87470732Y-57996985D01*
X87501309Y-58026553D01*
X87532204Y-58054517D01*
X87559020Y-58076800D01*
X87569344Y-58084703D01*
X87593398Y-58102627D01*
X87621733Y-58123287D01*
X87652508Y-58145388D01*
X87683883Y-58167638D01*
X87714017Y-58188742D01*
X87741070Y-58207409D01*
X87763201Y-58222343D01*
X87778570Y-58232252D01*
X87785337Y-58235842D01*
X87786795Y-58230594D01*
X87785273Y-58217625D01*
X87784957Y-58215696D01*
X87785873Y-58196175D01*
X87791921Y-58174778D01*
X87795072Y-58167412D01*
X87802010Y-58155810D01*
X87811393Y-58152199D01*
X87828272Y-58153644D01*
X87853458Y-58161544D01*
X87882848Y-58180506D01*
X87898970Y-58192741D01*
X87924893Y-58210370D01*
X87950511Y-58226001D01*
X87968161Y-58235708D01*
X87980358Y-58241321D01*
X87984655Y-58240981D01*
X87982720Y-58235163D01*
X87979498Y-58230573D01*
X87966513Y-58217797D01*
X87949259Y-58204790D01*
X87948930Y-58204573D01*
X87932312Y-58192130D01*
X87910890Y-58174042D01*
X87886750Y-58152319D01*
X87861980Y-58128970D01*
X87838666Y-58106003D01*
X87818895Y-58085428D01*
X87804755Y-58069254D01*
X87798331Y-58059491D01*
X87797886Y-58057771D01*
X87800437Y-58042937D01*
X87811327Y-58029125D01*
X87826761Y-58019818D01*
X87842949Y-58018502D01*
X87853714Y-58024435D01*
X87871284Y-58037974D01*
X87893256Y-58057028D01*
X87917439Y-58079553D01*
X87941643Y-58103507D01*
X87963675Y-58126846D01*
X87981346Y-58147529D01*
X87985857Y-58152947D01*
X87997851Y-58164328D01*
X88013563Y-58174450D01*
X88035877Y-58184985D01*
X88067673Y-58197605D01*
X88090552Y-58206097D01*
X88115260Y-58214805D01*
X88133608Y-58220731D01*
X88142756Y-58222919D01*
X88146206Y-58220579D01*
X88149060Y-58210430D01*
X88150613Y-58190704D01*
X88151082Y-58159743D01*
X88151205Y-58144004D01*
X88152942Y-58111757D01*
X88157431Y-58089829D01*
X88165566Y-58076408D01*
X88178237Y-58069684D01*
X88196336Y-58067844D01*
X88207267Y-58068632D01*
X88222730Y-58073264D01*
X88241002Y-58083460D01*
X88265430Y-58100817D01*
X88269592Y-58103957D01*
X88293368Y-58122475D01*
X88315240Y-58140357D01*
X88330933Y-58154124D01*
X88352478Y-58174459D01*
X88348159Y-58142151D01*
X88346620Y-58131219D01*
X88343496Y-58111742D01*
X88341002Y-58099437D01*
X88342330Y-58088268D01*
X88350147Y-58074232D01*
X88355920Y-58068482D01*
X88372077Y-58062809D01*
X88389492Y-58068903D01*
X88406309Y-58086363D01*
X88417209Y-58100860D01*
X88433206Y-58120491D01*
X88452277Y-58142933D01*
X88472533Y-58166060D01*
X88492086Y-58187748D01*
X88509046Y-58205871D01*
X88521527Y-58218303D01*
X88527639Y-58222919D01*
X88530928Y-58219522D01*
X88530152Y-58206830D01*
X88524707Y-58186866D01*
X88515447Y-58161892D01*
X88503231Y-58134170D01*
X88488913Y-58105963D01*
X88473351Y-58079531D01*
X88470307Y-58074723D01*
X88460792Y-58057494D01*
X88458052Y-58045808D01*
X88461029Y-58035916D01*
X88469438Y-58025913D01*
X88484177Y-58022638D01*
X88501675Y-58030739D01*
X88520635Y-58049912D01*
X88528314Y-58059410D01*
X88559381Y-58093789D01*
X88596824Y-58130572D01*
X88638194Y-58167710D01*
X88681045Y-58203152D01*
X88722928Y-58234849D01*
X88761395Y-58260751D01*
X88793997Y-58278808D01*
X88809298Y-58284798D01*
X88833192Y-58290948D01*
X88856061Y-58293869D01*
X88874198Y-58293165D01*
X88883898Y-58288439D01*
X88883652Y-58283627D01*
X88878716Y-58268901D01*
X88869466Y-58247063D01*
X88857055Y-58220548D01*
X88842635Y-58191792D01*
X88827360Y-58163233D01*
X88812381Y-58137305D01*
X88810288Y-58133887D01*
X88796474Y-58113763D01*
X88785293Y-58103209D01*
X88774640Y-58100152D01*
X88762336Y-58098399D01*
X88749004Y-58092015D01*
X88734751Y-58079984D01*
X88718814Y-58061298D01*
X88700429Y-58034949D01*
X88678834Y-57999929D01*
X88653265Y-57955231D01*
X88622959Y-57899846D01*
X88612069Y-57879719D01*
X88590544Y-57840249D01*
X88589218Y-57837840D01*
X88631373Y-57837840D01*
X88634503Y-57844646D01*
X88642381Y-57859174D01*
X88655589Y-57882573D01*
X88674708Y-57915995D01*
X88693394Y-57947936D01*
X88711747Y-57978062D01*
X88727813Y-58003199D01*
X88740563Y-58021788D01*
X88748967Y-58032270D01*
X88751997Y-58033086D01*
X88751575Y-58031747D01*
X88746281Y-58021424D01*
X88735997Y-58003206D01*
X88722085Y-57979359D01*
X88705909Y-57952148D01*
X88688832Y-57923838D01*
X88672217Y-57896696D01*
X88657428Y-57872986D01*
X88645827Y-57854973D01*
X88638778Y-57844924D01*
X88637028Y-57842789D01*
X88632408Y-57837605D01*
X88631373Y-57837840D01*
X88589218Y-57837840D01*
X88577348Y-57816268D01*
X88617891Y-57816268D01*
X88619537Y-57822309D01*
X88620865Y-57824222D01*
X88626762Y-57828770D01*
X88627645Y-57828350D01*
X88625999Y-57822309D01*
X88624671Y-57820396D01*
X88618775Y-57815848D01*
X88617891Y-57816268D01*
X88577348Y-57816268D01*
X88569149Y-57801369D01*
X88549870Y-57766683D01*
X88534694Y-57739792D01*
X88525427Y-57723159D01*
X88510073Y-57693812D01*
X88497204Y-57667080D01*
X88488911Y-57647191D01*
X88477385Y-57614492D01*
X88492639Y-57602094D01*
X88504941Y-57593142D01*
X88514662Y-57591010D01*
X88525722Y-57596440D01*
X88542154Y-57610083D01*
X88547213Y-57614644D01*
X88558195Y-57625616D01*
X88569380Y-57638696D01*
X88581625Y-57655201D01*
X88595790Y-57676450D01*
X88612732Y-57703759D01*
X88633310Y-57738447D01*
X88658383Y-57781832D01*
X88684887Y-57828350D01*
X88688808Y-57835232D01*
G37*
G36*
X89493306Y-58626810D02*
G01*
X89485979Y-58654665D01*
X89485595Y-58655397D01*
X89475123Y-58670983D01*
X89464373Y-58681166D01*
X89456641Y-58685138D01*
X89445823Y-58687406D01*
X89431820Y-58685169D01*
X89410263Y-58678188D01*
X89373326Y-58660645D01*
X89335676Y-58630291D01*
X89304286Y-58589256D01*
X89279022Y-58537314D01*
X89259751Y-58474239D01*
X89246340Y-58399806D01*
X89245597Y-58394148D01*
X89288647Y-58394148D01*
X89292293Y-58416763D01*
X89294819Y-58429560D01*
X89302521Y-58459100D01*
X89312730Y-58491886D01*
X89323743Y-58522617D01*
X89333853Y-58545993D01*
X89336412Y-58550644D01*
X89350423Y-58570770D01*
X89366885Y-58589211D01*
X89367630Y-58589917D01*
X89385872Y-58604631D01*
X89403895Y-58615177D01*
X89418571Y-58620063D01*
X89426771Y-58617795D01*
X89427128Y-58617026D01*
X89425864Y-58605719D01*
X89418376Y-58586366D01*
X89405897Y-58561087D01*
X89389659Y-58532003D01*
X89370895Y-58501232D01*
X89350836Y-58470893D01*
X89330716Y-58443108D01*
X89311767Y-58419994D01*
X89288647Y-58394148D01*
X89245597Y-58394148D01*
X89237535Y-58332727D01*
X89149379Y-58234208D01*
X89126387Y-58208054D01*
X89079532Y-58152000D01*
X89035273Y-58095505D01*
X88995944Y-58041598D01*
X88963879Y-57993313D01*
X88962493Y-57986228D01*
X88967636Y-57974146D01*
X88977954Y-57964545D01*
X88989524Y-57962184D01*
X88989599Y-57962204D01*
X88998247Y-57969273D01*
X89009836Y-57984709D01*
X89021878Y-58005207D01*
X89028548Y-58017517D01*
X89052945Y-58056585D01*
X89084037Y-58098466D01*
X89123072Y-58144761D01*
X89171296Y-58197074D01*
X89235959Y-58264919D01*
X89236378Y-58200304D01*
X89237224Y-58170576D01*
X89241130Y-58135649D01*
X89248552Y-58112827D01*
X89259893Y-58101807D01*
X89275557Y-58102287D01*
X89295947Y-58113966D01*
X89321466Y-58136541D01*
X89359375Y-58174054D01*
X89359375Y-58146370D01*
X89359481Y-58139541D01*
X89363077Y-58114804D01*
X89372998Y-58098501D01*
X89390894Y-58087555D01*
X89391294Y-58087391D01*
X89415114Y-58083997D01*
X89438055Y-58092630D01*
X89459171Y-58112408D01*
X89477516Y-58142451D01*
X89492146Y-58181878D01*
X89497590Y-58199913D01*
X89505969Y-58220181D01*
X89515779Y-58231085D01*
X89529320Y-58234704D01*
X89548893Y-58233114D01*
X89556906Y-58231637D01*
X89574743Y-58226271D01*
X89585208Y-58220071D01*
X89587381Y-58215265D01*
X89591207Y-58199031D01*
X89594941Y-58175149D01*
X89598015Y-58146861D01*
X89599731Y-58129662D01*
X89603418Y-58102161D01*
X89607511Y-58080333D01*
X89611401Y-58067790D01*
X89614847Y-58062153D01*
X89621778Y-58056745D01*
X89633659Y-58055321D01*
X89654397Y-58056887D01*
X89666893Y-58058762D01*
X89692196Y-58065336D01*
X89712246Y-58073875D01*
X89726007Y-58081760D01*
X89736432Y-58086283D01*
X89739596Y-58083980D01*
X89737571Y-58074939D01*
X89738291Y-58062355D01*
X89749386Y-58044378D01*
X89754619Y-58038913D01*
X89770701Y-58030079D01*
X89787165Y-58033404D01*
X89804487Y-58049100D01*
X89823140Y-58077379D01*
X89823758Y-58078471D01*
X89839325Y-58103500D01*
X89859035Y-58132022D01*
X89878776Y-58158075D01*
X89883288Y-58163709D01*
X89899624Y-58184640D01*
X89912758Y-58202257D01*
X89920188Y-58213227D01*
X89924391Y-58220129D01*
X89927157Y-58220709D01*
X89927787Y-58209355D01*
X89927779Y-58208731D01*
X89924530Y-58194244D01*
X89916515Y-58173206D01*
X89905368Y-58149944D01*
X89891393Y-58120122D01*
X89883444Y-58091512D01*
X89885376Y-58071147D01*
X89897197Y-58058968D01*
X89918914Y-58054922D01*
X89937711Y-58060025D01*
X89957684Y-58075514D01*
X89974891Y-58098863D01*
X89986928Y-58127506D01*
X89988561Y-58132651D01*
X89998494Y-58154654D01*
X90010460Y-58172233D01*
X90022929Y-58182114D01*
X90041936Y-58191725D01*
X90062326Y-58198536D01*
X90079981Y-58201207D01*
X90090782Y-58198396D01*
X90093120Y-58192619D01*
X90093826Y-58178600D01*
X90092214Y-58156217D01*
X90088188Y-58124868D01*
X90081650Y-58083954D01*
X90072502Y-58032872D01*
X90060649Y-57971023D01*
X90045992Y-57897805D01*
X90028435Y-57812617D01*
X90025705Y-57799393D01*
X90015654Y-57747367D01*
X90009202Y-57706399D01*
X90006367Y-57675375D01*
X90007168Y-57653182D01*
X90011626Y-57638709D01*
X90019757Y-57630841D01*
X90031582Y-57628465D01*
X90042294Y-57631468D01*
X90060788Y-57645938D01*
X90082857Y-57672031D01*
X90108258Y-57709353D01*
X90136747Y-57757511D01*
X90168081Y-57816111D01*
X90202018Y-57884760D01*
X90238314Y-57963065D01*
X90241821Y-57970832D01*
X90257795Y-58005703D01*
X90271858Y-58035617D01*
X90283180Y-58058860D01*
X90290930Y-58073716D01*
X90294275Y-58078471D01*
X90294738Y-58077021D01*
X90293350Y-58064807D01*
X90288040Y-58041081D01*
X90278950Y-58006391D01*
X90266220Y-57961284D01*
X90249990Y-57906308D01*
X90237916Y-57866036D01*
X90217988Y-57799205D01*
X90201419Y-57742970D01*
X90187911Y-57696189D01*
X90177168Y-57657718D01*
X90168893Y-57626415D01*
X90162788Y-57601137D01*
X90158556Y-57580741D01*
X90155902Y-57564083D01*
X90154527Y-57550021D01*
X90154134Y-57537413D01*
X90155706Y-57508464D01*
X90160857Y-57489857D01*
X90169743Y-57483200D01*
X90182512Y-57488234D01*
X90189372Y-57495732D01*
X90201560Y-57512243D01*
X90216923Y-57534967D01*
X90233673Y-57561348D01*
X90240629Y-57572644D01*
X90260698Y-57605238D01*
X90284155Y-57643336D01*
X90308625Y-57683082D01*
X90331736Y-57720624D01*
X90347362Y-57745891D01*
X90364473Y-57773252D01*
X90378198Y-57794848D01*
X90387419Y-57808925D01*
X90391019Y-57813729D01*
X90390534Y-57808700D01*
X90387704Y-57794217D01*
X90383115Y-57773795D01*
X90373879Y-57727130D01*
X90367596Y-57678686D01*
X90364550Y-57631882D01*
X90364728Y-57588896D01*
X90368119Y-57551904D01*
X90374713Y-57523083D01*
X90384499Y-57504611D01*
X90391469Y-57498578D01*
X90409618Y-57493244D01*
X90432790Y-57498118D01*
X90461417Y-57513404D01*
X90495930Y-57539305D01*
X90536761Y-57576022D01*
X90547731Y-57586582D01*
X90587434Y-57626487D01*
X90617124Y-57659642D01*
X90637209Y-57686660D01*
X90648097Y-57708153D01*
X90650196Y-57724735D01*
X90643913Y-57737018D01*
X90636541Y-57742789D01*
X90621104Y-57745001D01*
X90605082Y-57734363D01*
X90588417Y-57710849D01*
X90572280Y-57684464D01*
X90526351Y-57625952D01*
X90472015Y-57577091D01*
X90464916Y-57571806D01*
X90445543Y-57557901D01*
X90430963Y-57548194D01*
X90423900Y-57544528D01*
X90421589Y-57549837D01*
X90419952Y-57565697D01*
X90419118Y-57589670D01*
X90419038Y-57619294D01*
X90419665Y-57652102D01*
X90420949Y-57685632D01*
X90422842Y-57717419D01*
X90425295Y-57744999D01*
X90428261Y-57765907D01*
X90433740Y-57792671D01*
X90449090Y-57853720D01*
X90468983Y-57916088D01*
X90494245Y-57982013D01*
X90525704Y-58053731D01*
X90564185Y-58133477D01*
X90575840Y-58157020D01*
X90596856Y-58201438D01*
X90611689Y-58236426D01*
X90620679Y-58263110D01*
X90624166Y-58282614D01*
X90622492Y-58296064D01*
X90615997Y-58304583D01*
X90609570Y-58308270D01*
X90598204Y-58308502D01*
X90587008Y-58299105D01*
X90575025Y-58279078D01*
X90561294Y-58247418D01*
X90558511Y-58240439D01*
X90535003Y-58185384D01*
X90505630Y-58121977D01*
X90471500Y-58052342D01*
X90433720Y-57978607D01*
X90393399Y-57902896D01*
X90351644Y-57827335D01*
X90309563Y-57754051D01*
X90268265Y-57685168D01*
X90252198Y-57659197D01*
X90235012Y-57631859D01*
X90221178Y-57610353D01*
X90211817Y-57596414D01*
X90208048Y-57591782D01*
X90208001Y-57591864D01*
X90209050Y-57599398D01*
X90213115Y-57617582D01*
X90219756Y-57644728D01*
X90228532Y-57679154D01*
X90239002Y-57719173D01*
X90250727Y-57763102D01*
X90263265Y-57809255D01*
X90276176Y-57855947D01*
X90289020Y-57901494D01*
X90297225Y-57930782D01*
X90307813Y-57970725D01*
X90317508Y-58010526D01*
X90326875Y-58052769D01*
X90336479Y-58100038D01*
X90346886Y-58154916D01*
X90358660Y-58219988D01*
X90359083Y-58233176D01*
X90353852Y-58246985D01*
X90344029Y-58253110D01*
X90332024Y-58248931D01*
X90325244Y-58240106D01*
X90313561Y-58219766D01*
X90297919Y-58189225D01*
X90278770Y-58149423D01*
X90256566Y-58101299D01*
X90231756Y-58045793D01*
X90204792Y-57983845D01*
X90203733Y-57981386D01*
X90177735Y-57922603D01*
X90151639Y-57866462D01*
X90126392Y-57814848D01*
X90102940Y-57769643D01*
X90082229Y-57732734D01*
X90065208Y-57706003D01*
X90060196Y-57699278D01*
X90054149Y-57693048D01*
X90053798Y-57696310D01*
X90057012Y-57708823D01*
X90061852Y-57732370D01*
X90067978Y-57764988D01*
X90075085Y-57804805D01*
X90082866Y-57849952D01*
X90091016Y-57898558D01*
X90099229Y-57948753D01*
X90107199Y-57998667D01*
X90114619Y-58046430D01*
X90121184Y-58090171D01*
X90126588Y-58128021D01*
X90130525Y-58158109D01*
X90132689Y-58178566D01*
X90134146Y-58198281D01*
X90134601Y-58215881D01*
X90132610Y-58226456D01*
X90127379Y-58233361D01*
X90118110Y-58239949D01*
X90114835Y-58241949D01*
X90099804Y-58247916D01*
X90079184Y-58250956D01*
X90049364Y-58251685D01*
X90047105Y-58251675D01*
X90019719Y-58252386D01*
X90004051Y-58254838D01*
X89999059Y-58259188D01*
X89998330Y-58262943D01*
X89989482Y-58275140D01*
X89973838Y-58287332D01*
X89955511Y-58296707D01*
X89938617Y-58300457D01*
X89935938Y-58300412D01*
X89919454Y-58297633D01*
X89902384Y-58289446D01*
X89882195Y-58274319D01*
X89856354Y-58250723D01*
X89842463Y-58237787D01*
X89831191Y-58229262D01*
X89824045Y-58227851D01*
X89818409Y-58232285D01*
X89818102Y-58232652D01*
X89807191Y-58241229D01*
X89794307Y-58241949D01*
X89778057Y-58234154D01*
X89757050Y-58217184D01*
X89729893Y-58190379D01*
X89715978Y-58176173D01*
X89695072Y-58156505D01*
X89681691Y-58146767D01*
X89675590Y-58146764D01*
X89675116Y-58147840D01*
X89671897Y-58159968D01*
X89667908Y-58180401D01*
X89663902Y-58205367D01*
X89663350Y-58209038D01*
X89658328Y-58235119D01*
X89652331Y-58257274D01*
X89646538Y-58271040D01*
X89627789Y-58289070D01*
X89599370Y-58301983D01*
X89564306Y-58308182D01*
X89533865Y-58310149D01*
X89537848Y-58331407D01*
X89538585Y-58337275D01*
X89535075Y-58357717D01*
X89523238Y-58372376D01*
X89505371Y-58377956D01*
X89500438Y-58376244D01*
X89485542Y-58365933D01*
X89462719Y-58346638D01*
X89432419Y-58318747D01*
X89395090Y-58282650D01*
X89298346Y-58187381D01*
X89293801Y-58216458D01*
X89292408Y-58226896D01*
X89289961Y-58254233D01*
X89288777Y-58281234D01*
X89288299Y-58316934D01*
X89337193Y-58365233D01*
X89384178Y-58414946D01*
X89423829Y-58463867D01*
X89455050Y-58510454D01*
X89477359Y-58553765D01*
X89490271Y-58592864D01*
X89492431Y-58617026D01*
X89493306Y-58626810D01*
G37*
G36*
X87198875Y-57374747D02*
G01*
X87202424Y-57382502D01*
X87204985Y-57396484D01*
X87206704Y-57417810D01*
X87207726Y-57447594D01*
X87208196Y-57486952D01*
X87208258Y-57537002D01*
X87208057Y-57598858D01*
X87207827Y-57635451D01*
X87207256Y-57685441D01*
X87206441Y-57730637D01*
X87205426Y-57769414D01*
X87204258Y-57800144D01*
X87202981Y-57821204D01*
X87201640Y-57830966D01*
X87197166Y-57840905D01*
X87184692Y-57855272D01*
X87168433Y-57858205D01*
X87147664Y-57849693D01*
X87121661Y-57829724D01*
X87115053Y-57823782D01*
X87106619Y-57816201D01*
X87101818Y-57812444D01*
X87101230Y-57813674D01*
X87105434Y-57821050D01*
X87115010Y-57835734D01*
X87130538Y-57858886D01*
X87152599Y-57891667D01*
X87165854Y-57911159D01*
X87176335Y-57925236D01*
X87182915Y-57931116D01*
X87187294Y-57930221D01*
X87191172Y-57923975D01*
X87192451Y-57921659D01*
X87204640Y-57910464D01*
X87219544Y-57907638D01*
X87232185Y-57914350D01*
X87233224Y-57916583D01*
X87236509Y-57930146D01*
X87240698Y-57953742D01*
X87245485Y-57985386D01*
X87250559Y-58023097D01*
X87255614Y-58064891D01*
X87257484Y-58081022D01*
X87262545Y-58122763D01*
X87267423Y-58160450D01*
X87271816Y-58191885D01*
X87275421Y-58214868D01*
X87277936Y-58227202D01*
X87278004Y-58227432D01*
X87280613Y-58246197D01*
X87274575Y-58261125D01*
X87270322Y-58266800D01*
X87261644Y-58273426D01*
X87251344Y-58271155D01*
X87235665Y-58259863D01*
X87229953Y-58255407D01*
X87210610Y-58241383D01*
X87190007Y-58227509D01*
X87187946Y-58226100D01*
X87172495Y-58212838D01*
X87152098Y-58192260D01*
X87129167Y-58166902D01*
X87106117Y-58139303D01*
X87098769Y-58130148D01*
X87079273Y-58106131D01*
X87063366Y-58086936D01*
X87052526Y-58074334D01*
X87048234Y-58070090D01*
X87048498Y-58076337D01*
X87050579Y-58091946D01*
X87054035Y-58113442D01*
X87057389Y-58137595D01*
X87057561Y-58164522D01*
X87051760Y-58185964D01*
X87039382Y-58205716D01*
X87038926Y-58206290D01*
X87023551Y-58219246D01*
X87003065Y-58222919D01*
X86998943Y-58222787D01*
X86986309Y-58220165D01*
X86973651Y-58213162D01*
X86959649Y-58200434D01*
X86942981Y-58180640D01*
X86922327Y-58152438D01*
X86896366Y-58114484D01*
X86895902Y-58113793D01*
X86874343Y-58082979D01*
X86858371Y-58063186D01*
X86847530Y-58054025D01*
X86841360Y-58055107D01*
X86839405Y-58066043D01*
X86838949Y-58070775D01*
X86831439Y-58090247D01*
X86816766Y-58112418D01*
X86797597Y-58133699D01*
X86776602Y-58150501D01*
X86759581Y-58160095D01*
X86731473Y-58173240D01*
X86703714Y-58183828D01*
X86694342Y-58186580D01*
X86664267Y-58193452D01*
X86625466Y-58200503D01*
X86580871Y-58207337D01*
X86533419Y-58213556D01*
X86486043Y-58218762D01*
X86441677Y-58222558D01*
X86403257Y-58224546D01*
X86397533Y-58224703D01*
X86372030Y-58225213D01*
X86356522Y-58224633D01*
X86348521Y-58222352D01*
X86345544Y-58217757D01*
X86345103Y-58210238D01*
X86345536Y-58204559D01*
X86348453Y-58198154D01*
X86355628Y-58193169D01*
X86368785Y-58189122D01*
X86389651Y-58185531D01*
X86419950Y-58181915D01*
X86461410Y-58177793D01*
X86517538Y-58171448D01*
X86582874Y-58161161D01*
X86640087Y-58148705D01*
X86687986Y-58134394D01*
X86725379Y-58118543D01*
X86751072Y-58101465D01*
X86751508Y-58101067D01*
X86767597Y-58080106D01*
X86782172Y-58049621D01*
X86793642Y-58012922D01*
X86795867Y-58004333D01*
X86806100Y-57975796D01*
X86817853Y-57957801D01*
X86830413Y-57951538D01*
X86833317Y-57952135D01*
X86845196Y-57959488D01*
X86858703Y-57972538D01*
X86867651Y-57982871D01*
X86884300Y-58002105D01*
X86904749Y-58025737D01*
X86926431Y-58050798D01*
X86944417Y-58072188D01*
X86962298Y-58094796D01*
X86975550Y-58113077D01*
X86982173Y-58124386D01*
X86986173Y-58133537D01*
X86990524Y-58137898D01*
X86992445Y-58130899D01*
X86991799Y-58113375D01*
X86988449Y-58086165D01*
X86985689Y-58061902D01*
X86984165Y-58030831D01*
X86984639Y-58001851D01*
X86987031Y-57978533D01*
X86991258Y-57964447D01*
X86996177Y-57959341D01*
X87008548Y-57958548D01*
X87023846Y-57968452D01*
X87040571Y-57988326D01*
X87040669Y-57988469D01*
X87055642Y-58008556D01*
X87077148Y-58035305D01*
X87102856Y-58066015D01*
X87130437Y-58097985D01*
X87157562Y-58128517D01*
X87181902Y-58154908D01*
X87201127Y-58174459D01*
X87228093Y-58200304D01*
X87224202Y-58177689D01*
X87220835Y-58158153D01*
X87212828Y-58112283D01*
X87206344Y-58076785D01*
X87200933Y-58049915D01*
X87196144Y-58029933D01*
X87191529Y-58015095D01*
X87186637Y-58003659D01*
X87181019Y-57993883D01*
X87174227Y-57984025D01*
X87171900Y-57980768D01*
X87154751Y-57956062D01*
X87132294Y-57922857D01*
X87105887Y-57883224D01*
X87076891Y-57839232D01*
X87046663Y-57792951D01*
X87016563Y-57746451D01*
X86987950Y-57701801D01*
X86962182Y-57661072D01*
X86946973Y-57637034D01*
X86924692Y-57602467D01*
X86903755Y-57570678D01*
X86885972Y-57544407D01*
X86873156Y-57526398D01*
X86857040Y-57502288D01*
X86848515Y-57481453D01*
X86850616Y-57467905D01*
X86863346Y-57461671D01*
X86868836Y-57462271D01*
X86882156Y-57470913D01*
X86899419Y-57489748D01*
X86920938Y-57519185D01*
X86947026Y-57559634D01*
X86977997Y-57611506D01*
X86985754Y-57624799D01*
X87001481Y-57650930D01*
X87012938Y-57668041D01*
X87021481Y-57677805D01*
X87028469Y-57681891D01*
X87035259Y-57681972D01*
X87037213Y-57681702D01*
X87045966Y-57683335D01*
X87056699Y-57690666D01*
X87071307Y-57705263D01*
X87091685Y-57728697D01*
X87101459Y-57740353D01*
X87121583Y-57764630D01*
X87139270Y-57786306D01*
X87151552Y-57801759D01*
X87169703Y-57825283D01*
X87168510Y-57605976D01*
X87168331Y-57571413D01*
X87168131Y-57518942D01*
X87168142Y-57477326D01*
X87168426Y-57445240D01*
X87169049Y-57421357D01*
X87170074Y-57404352D01*
X87171565Y-57392900D01*
X87173586Y-57385674D01*
X87176201Y-57381348D01*
X87179474Y-57378597D01*
X87180861Y-57377684D01*
X87188239Y-57373454D01*
X87194195Y-57372103D01*
X87198875Y-57374747D01*
G37*
%TD*%
M02*
