%TF.GenerationSoftware,KiCad,Pcbnew,9.0.2*%
%TF.CreationDate,2025-07-09T13:19:50-04:00*%
%TF.ProjectId,JST Adapter Board,4a535420-4164-4617-9074-657220426f61,rev?*%
%TF.SameCoordinates,Original*%
%TF.FileFunction,Legend,Top*%
%TF.FilePolarity,Positive*%
%FSLAX46Y46*%
G04 Gerber Fmt 4.6, Leading zero omitted, Abs format (unit mm)*
G04 Created by KiCad (PCBNEW 9.0.2) date 2025-07-09 13:19:50*
%MOMM*%
%LPD*%
G01*
G04 APERTURE LIST*
%ADD10C,0.150000*%
%ADD11C,0.120000*%
G04 APERTURE END LIST*
D10*
X91166666Y-61954819D02*
X91166666Y-62669104D01*
X91166666Y-62669104D02*
X91119047Y-62811961D01*
X91119047Y-62811961D02*
X91023809Y-62907200D01*
X91023809Y-62907200D02*
X90880952Y-62954819D01*
X90880952Y-62954819D02*
X90785714Y-62954819D01*
X92119047Y-61954819D02*
X91642857Y-61954819D01*
X91642857Y-61954819D02*
X91595238Y-62431009D01*
X91595238Y-62431009D02*
X91642857Y-62383390D01*
X91642857Y-62383390D02*
X91738095Y-62335771D01*
X91738095Y-62335771D02*
X91976190Y-62335771D01*
X91976190Y-62335771D02*
X92071428Y-62383390D01*
X92071428Y-62383390D02*
X92119047Y-62431009D01*
X92119047Y-62431009D02*
X92166666Y-62526247D01*
X92166666Y-62526247D02*
X92166666Y-62764342D01*
X92166666Y-62764342D02*
X92119047Y-62859580D01*
X92119047Y-62859580D02*
X92071428Y-62907200D01*
X92071428Y-62907200D02*
X91976190Y-62954819D01*
X91976190Y-62954819D02*
X91738095Y-62954819D01*
X91738095Y-62954819D02*
X91642857Y-62907200D01*
X91642857Y-62907200D02*
X91595238Y-62859580D01*
X91166666Y-73454819D02*
X91166666Y-74169104D01*
X91166666Y-74169104D02*
X91119047Y-74311961D01*
X91119047Y-74311961D02*
X91023809Y-74407200D01*
X91023809Y-74407200D02*
X90880952Y-74454819D01*
X90880952Y-74454819D02*
X90785714Y-74454819D01*
X92071428Y-73454819D02*
X91880952Y-73454819D01*
X91880952Y-73454819D02*
X91785714Y-73502438D01*
X91785714Y-73502438D02*
X91738095Y-73550057D01*
X91738095Y-73550057D02*
X91642857Y-73692914D01*
X91642857Y-73692914D02*
X91595238Y-73883390D01*
X91595238Y-73883390D02*
X91595238Y-74264342D01*
X91595238Y-74264342D02*
X91642857Y-74359580D01*
X91642857Y-74359580D02*
X91690476Y-74407200D01*
X91690476Y-74407200D02*
X91785714Y-74454819D01*
X91785714Y-74454819D02*
X91976190Y-74454819D01*
X91976190Y-74454819D02*
X92071428Y-74407200D01*
X92071428Y-74407200D02*
X92119047Y-74359580D01*
X92119047Y-74359580D02*
X92166666Y-74264342D01*
X92166666Y-74264342D02*
X92166666Y-74026247D01*
X92166666Y-74026247D02*
X92119047Y-73931009D01*
X92119047Y-73931009D02*
X92071428Y-73883390D01*
X92071428Y-73883390D02*
X91976190Y-73835771D01*
X91976190Y-73835771D02*
X91785714Y-73835771D01*
X91785714Y-73835771D02*
X91690476Y-73883390D01*
X91690476Y-73883390D02*
X91642857Y-73931009D01*
X91642857Y-73931009D02*
X91595238Y-74026247D01*
X85166666Y-84954819D02*
X85166666Y-85669104D01*
X85166666Y-85669104D02*
X85119047Y-85811961D01*
X85119047Y-85811961D02*
X85023809Y-85907200D01*
X85023809Y-85907200D02*
X84880952Y-85954819D01*
X84880952Y-85954819D02*
X84785714Y-85954819D01*
X86071428Y-85288152D02*
X86071428Y-85954819D01*
X85833333Y-84907200D02*
X85595238Y-85621485D01*
X85595238Y-85621485D02*
X86214285Y-85621485D01*
X91166666Y-84954819D02*
X91166666Y-85669104D01*
X91166666Y-85669104D02*
X91119047Y-85811961D01*
X91119047Y-85811961D02*
X91023809Y-85907200D01*
X91023809Y-85907200D02*
X90880952Y-85954819D01*
X90880952Y-85954819D02*
X90785714Y-85954819D01*
X91547619Y-84954819D02*
X92214285Y-84954819D01*
X92214285Y-84954819D02*
X91785714Y-85954819D01*
X92666666Y-56454819D02*
X92666666Y-57169104D01*
X92666666Y-57169104D02*
X92619047Y-57311961D01*
X92619047Y-57311961D02*
X92523809Y-57407200D01*
X92523809Y-57407200D02*
X92380952Y-57454819D01*
X92380952Y-57454819D02*
X92285714Y-57454819D01*
X93666666Y-57454819D02*
X93095238Y-57454819D01*
X93380952Y-57454819D02*
X93380952Y-56454819D01*
X93380952Y-56454819D02*
X93285714Y-56597676D01*
X93285714Y-56597676D02*
X93190476Y-56692914D01*
X93190476Y-56692914D02*
X93095238Y-56740533D01*
X85166666Y-73454819D02*
X85166666Y-74169104D01*
X85166666Y-74169104D02*
X85119047Y-74311961D01*
X85119047Y-74311961D02*
X85023809Y-74407200D01*
X85023809Y-74407200D02*
X84880952Y-74454819D01*
X84880952Y-74454819D02*
X84785714Y-74454819D01*
X85547619Y-73454819D02*
X86166666Y-73454819D01*
X86166666Y-73454819D02*
X85833333Y-73835771D01*
X85833333Y-73835771D02*
X85976190Y-73835771D01*
X85976190Y-73835771D02*
X86071428Y-73883390D01*
X86071428Y-73883390D02*
X86119047Y-73931009D01*
X86119047Y-73931009D02*
X86166666Y-74026247D01*
X86166666Y-74026247D02*
X86166666Y-74264342D01*
X86166666Y-74264342D02*
X86119047Y-74359580D01*
X86119047Y-74359580D02*
X86071428Y-74407200D01*
X86071428Y-74407200D02*
X85976190Y-74454819D01*
X85976190Y-74454819D02*
X85690476Y-74454819D01*
X85690476Y-74454819D02*
X85595238Y-74407200D01*
X85595238Y-74407200D02*
X85547619Y-74359580D01*
X85166666Y-61954819D02*
X85166666Y-62669104D01*
X85166666Y-62669104D02*
X85119047Y-62811961D01*
X85119047Y-62811961D02*
X85023809Y-62907200D01*
X85023809Y-62907200D02*
X84880952Y-62954819D01*
X84880952Y-62954819D02*
X84785714Y-62954819D01*
X85595238Y-62050057D02*
X85642857Y-62002438D01*
X85642857Y-62002438D02*
X85738095Y-61954819D01*
X85738095Y-61954819D02*
X85976190Y-61954819D01*
X85976190Y-61954819D02*
X86071428Y-62002438D01*
X86071428Y-62002438D02*
X86119047Y-62050057D01*
X86119047Y-62050057D02*
X86166666Y-62145295D01*
X86166666Y-62145295D02*
X86166666Y-62240533D01*
X86166666Y-62240533D02*
X86119047Y-62383390D01*
X86119047Y-62383390D02*
X85547619Y-62954819D01*
X85547619Y-62954819D02*
X86166666Y-62954819D01*
D11*
%TO.C,J5*%
X89290000Y-63390000D02*
X89290000Y-73610000D01*
X89290000Y-73610000D02*
X93310000Y-73610000D01*
X89790000Y-63890000D02*
X91000000Y-63890000D01*
X89790000Y-73110000D02*
X89790000Y-63890000D01*
X91000000Y-63890000D02*
X91000000Y-63390000D01*
X91000000Y-73110000D02*
X89790000Y-73110000D01*
X91000000Y-73610000D02*
X91000000Y-73110000D01*
X91110000Y-73910000D02*
X93610000Y-73910000D01*
X91810000Y-63390000D02*
X91810000Y-64390000D01*
X91810000Y-64390000D02*
X93310000Y-64390000D01*
X91810000Y-72610000D02*
X93310000Y-72610000D01*
X91810000Y-73610000D02*
X91810000Y-72610000D01*
X93310000Y-63390000D02*
X89290000Y-63390000D01*
X93310000Y-73610000D02*
X93310000Y-63390000D01*
X93610000Y-73910000D02*
X93610000Y-71410000D01*
%TO.C,J6*%
X89290000Y-74890000D02*
X89290000Y-85110000D01*
X89290000Y-85110000D02*
X93310000Y-85110000D01*
X89790000Y-75390000D02*
X91000000Y-75390000D01*
X89790000Y-84610000D02*
X89790000Y-75390000D01*
X91000000Y-75390000D02*
X91000000Y-74890000D01*
X91000000Y-84610000D02*
X89790000Y-84610000D01*
X91000000Y-85110000D02*
X91000000Y-84610000D01*
X91110000Y-85410000D02*
X93610000Y-85410000D01*
X91810000Y-74890000D02*
X91810000Y-75890000D01*
X91810000Y-75890000D02*
X93310000Y-75890000D01*
X91810000Y-84110000D02*
X93310000Y-84110000D01*
X91810000Y-85110000D02*
X91810000Y-84110000D01*
X93310000Y-74890000D02*
X89290000Y-74890000D01*
X93310000Y-85110000D02*
X93310000Y-74890000D01*
X93610000Y-85410000D02*
X93610000Y-82910000D01*
%TO.C,J4*%
X83390000Y-86090000D02*
X83390000Y-88590000D01*
X83690000Y-86390000D02*
X83690000Y-96610000D01*
X83690000Y-96610000D02*
X87710000Y-96610000D01*
X85190000Y-86390000D02*
X85190000Y-87390000D01*
X85190000Y-87390000D02*
X83690000Y-87390000D01*
X85190000Y-95610000D02*
X83690000Y-95610000D01*
X85190000Y-96610000D02*
X85190000Y-95610000D01*
X85890000Y-86090000D02*
X83390000Y-86090000D01*
X86000000Y-86390000D02*
X86000000Y-86890000D01*
X86000000Y-86890000D02*
X87210000Y-86890000D01*
X86000000Y-96110000D02*
X86000000Y-96610000D01*
X87210000Y-86890000D02*
X87210000Y-96110000D01*
X87210000Y-96110000D02*
X86000000Y-96110000D01*
X87710000Y-86390000D02*
X83690000Y-86390000D01*
X87710000Y-96610000D02*
X87710000Y-86390000D01*
%TO.C,J7*%
X89290000Y-86390000D02*
X89290000Y-96610000D01*
X89290000Y-96610000D02*
X93310000Y-96610000D01*
X89790000Y-86890000D02*
X91000000Y-86890000D01*
X89790000Y-96110000D02*
X89790000Y-86890000D01*
X91000000Y-86890000D02*
X91000000Y-86390000D01*
X91000000Y-96110000D02*
X89790000Y-96110000D01*
X91000000Y-96610000D02*
X91000000Y-96110000D01*
X91110000Y-96910000D02*
X93610000Y-96910000D01*
X91810000Y-86390000D02*
X91810000Y-87390000D01*
X91810000Y-87390000D02*
X93310000Y-87390000D01*
X91810000Y-95610000D02*
X93310000Y-95610000D01*
X91810000Y-96610000D02*
X91810000Y-95610000D01*
X93310000Y-86390000D02*
X89290000Y-86390000D01*
X93310000Y-96610000D02*
X93310000Y-86390000D01*
X93610000Y-96910000D02*
X93610000Y-94410000D01*
%TO.C,J1*%
X83390000Y-58190000D02*
X83390000Y-62210000D01*
X83390000Y-59690000D02*
X84390000Y-59690000D01*
X83390000Y-62210000D02*
X93610000Y-62210000D01*
X83890000Y-60500000D02*
X83390000Y-60500000D01*
X83890000Y-61710000D02*
X83890000Y-60500000D01*
X84390000Y-59690000D02*
X84390000Y-58190000D01*
X92610000Y-59690000D02*
X92610000Y-58190000D01*
X93110000Y-60500000D02*
X93110000Y-61710000D01*
X93110000Y-61710000D02*
X83890000Y-61710000D01*
X93610000Y-58190000D02*
X83390000Y-58190000D01*
X93610000Y-59690000D02*
X92610000Y-59690000D01*
X93610000Y-60500000D02*
X93110000Y-60500000D01*
X93610000Y-62210000D02*
X93610000Y-58190000D01*
X93910000Y-57890000D02*
X91410000Y-57890000D01*
X93910000Y-60390000D02*
X93910000Y-57890000D01*
%TO.C,J3*%
X83390000Y-74590000D02*
X83390000Y-77090000D01*
X83690000Y-74890000D02*
X83690000Y-85110000D01*
X83690000Y-85110000D02*
X87710000Y-85110000D01*
X85190000Y-74890000D02*
X85190000Y-75890000D01*
X85190000Y-75890000D02*
X83690000Y-75890000D01*
X85190000Y-84110000D02*
X83690000Y-84110000D01*
X85190000Y-85110000D02*
X85190000Y-84110000D01*
X85890000Y-74590000D02*
X83390000Y-74590000D01*
X86000000Y-74890000D02*
X86000000Y-75390000D01*
X86000000Y-75390000D02*
X87210000Y-75390000D01*
X86000000Y-84610000D02*
X86000000Y-85110000D01*
X87210000Y-75390000D02*
X87210000Y-84610000D01*
X87210000Y-84610000D02*
X86000000Y-84610000D01*
X87710000Y-74890000D02*
X83690000Y-74890000D01*
X87710000Y-85110000D02*
X87710000Y-74890000D01*
%TO.C,J2*%
X83390000Y-63090000D02*
X83390000Y-65590000D01*
X83690000Y-63390000D02*
X83690000Y-73610000D01*
X83690000Y-73610000D02*
X87710000Y-73610000D01*
X85190000Y-63390000D02*
X85190000Y-64390000D01*
X85190000Y-64390000D02*
X83690000Y-64390000D01*
X85190000Y-72610000D02*
X83690000Y-72610000D01*
X85190000Y-73610000D02*
X85190000Y-72610000D01*
X85890000Y-63090000D02*
X83390000Y-63090000D01*
X86000000Y-63390000D02*
X86000000Y-63890000D01*
X86000000Y-63890000D02*
X87210000Y-63890000D01*
X86000000Y-73110000D02*
X86000000Y-73610000D01*
X87210000Y-63890000D02*
X87210000Y-73110000D01*
X87210000Y-73110000D02*
X86000000Y-73110000D01*
X87710000Y-63390000D02*
X83690000Y-63390000D01*
X87710000Y-73610000D02*
X87710000Y-63390000D01*
%TD*%
M02*
